# xmcd CD database file
#
# Track frame offsets:
#	150
#	21098
#	35072
#	56735
#	77029
#	93912
#	109856
#	128851
#	146183
#	161589
#	177986
#	194499
#	212843
#	229698
#	249669
#	264983
#
# Disc length: 3733 seconds
#
# Revision: 0
# Processed by: cddbd v1.5.2PL0 Copyright (c) Steve Scherf et al.
# Submitted via: CDex 1.70beta2
#
DISCID=e60e9310
DTITLE=The Buddaheads - Raw
DYEAR=2007
DGENRE=Blues
TTITLE0=Rich Man
TTITLE1=Big Time Baby
TTITLE2=What's Come Over You?
TTITLE3=Road To Ruin
TTITLE4=Stop Talkin' That Way
TTITLE5=At Ten She's A Two
TTITLE6=Just For Fun
TTITLE7=Cross The Water
TTITLE8=Mary Don't You Weep
TTITLE9=How Far Can You Fall?
TTITLE10=Devil's Son
TTITLE11=It's Hard To Please A Woman
TTITLE12=Matter Of Time
TTITLE13=Can't Keep A Hold On You
TTITLE14=Chicken Head
TTITLE15=Devil's Playground
EXTD=YEAR: 2007
EXTT0=
EXTT1=
EXTT2=
EXTT3=
EXTT4=
EXTT5=
EXTT6=
EXTT7=
EXTT8=
EXTT9=
EXTT10=
EXTT11=
EXTT12=
EXTT13=
EXTT14=
EXTT15=
PLAYORDER=
